<svg width="51" height="53" viewBox="0 0 51 53" fill="none" xmlns="http://www.w3.org/2000/svg">
<path d="M11.8605 1.21649C17.1445 2.64801 29.8683 4.7455 38.4917 1.68329C40.3305 2.83473 43.5136 9.18944 41.5353 25.3967C41.3662 27.1395 40.5208 32.5855 38.4917 40.4277C38.4917 40.4277 40.1154 39.7559 41.6119 39.7559C43.1083 39.7559 43.4547 47.1496 39.0161 50.6973C32.0402 48.895 23.3878 49.2735 17.6301 51.8693C10.8175 54.9406 10.5501 48.7367 11.2264 42.0148C11.9239 37.2535 13.5344 25.7888 14.3968 18.0213L12.2853 18.3481L10.1739 18.6748C9.30728 18.6437 7.53609 17.4611 7.38391 12.9799C7.23174 8.49857 8.71547 4.32849 9.47637 2.80361C9.86103 1.93225 10.8764 0.394927 11.8605 1.21649Z" fill="#FFEFD0"/>
<path d="M38.4917 1.68329L38.5182 1.64092L38.4978 1.62809L38.475 1.63618L38.4917 1.68329ZM41.5353 25.3967L41.4856 25.3907L41.4855 25.3919L41.5353 25.3967ZM38.4917 40.4277L38.5041 40.4767L38.5108 40.4739L38.4917 40.4277ZM39.0161 50.6973L39.0036 50.7457L39.0278 50.752L39.0474 50.7364L39.0161 50.6973ZM11.2264 42.0148L11.1769 42.0076L11.1767 42.0098L11.2264 42.0148ZM14.3968 18.0213L14.4465 18.0268L14.4467 18.0247L14.3968 18.0213ZM15.9186 40.4277L15.9293 40.3789C15.9137 40.3754 15.8974 40.3797 15.8855 40.3902L15.9186 40.4277ZM14.9674 45.8426V45.7926H14.888L14.9224 45.8642L14.9674 45.8426ZM15.5381 51.1641L15.5762 51.1965L15.5762 51.1965L15.5381 51.1641ZM13.5725 50.4172L13.5242 50.4305L13.5247 50.4321L13.5725 50.4172ZM10.1739 18.6748L10.172 18.7257L10.1815 18.7242L10.1739 18.6748ZM7.38391 12.9799L7.43389 12.9782L7.38391 12.9799ZM9.47637 2.80361L9.52116 2.82596L9.52211 2.82381L9.47637 2.80361ZM11.2264 5.51111L11.2112 5.55873L11.2112 5.55873L11.2264 5.51111ZM9.60321 12.7932L9.65214 12.7829L9.65214 12.7829L9.60321 12.7932ZM10.808 14.287L10.7679 14.257L10.7679 14.257L10.808 14.287ZM11.2264 10.0858V10.0358H11.159L11.1786 10.1003L11.2264 10.0858ZM12.7485 10.0858L12.7984 10.0818L12.7984 10.0818L12.7485 10.0858ZM12.2853 18.3481L12.2777 18.2986L12.2777 18.2986L12.2853 18.3481ZM15.2221 51.4697L15.192 51.4297L15.192 51.4297L15.2221 51.4697ZM17.7006 51.1641L17.6507 51.1604L17.6507 51.1604L17.7006 51.1641ZM14.9674 51.6166L14.9489 51.5701L14.9489 51.5701L14.9674 51.6166ZM17.7152 50.9499L17.7651 50.9531L17.7651 50.9531L17.7152 50.9499ZM11.8474 1.26475C14.4924 1.98134 18.9977 2.86417 23.9206 3.18494C28.8426 3.50565 34.1873 3.26484 38.5084 1.73041L38.475 1.63618C34.1726 3.16395 28.8437 3.40551 23.9271 3.08515C19.0112 2.76484 14.5125 1.88317 11.8736 1.16823L11.8474 1.26475ZM38.4652 1.72567C38.9143 2.0069 39.4528 2.61127 39.9769 3.61821C40.5004 4.62417 41.0075 6.02837 41.396 7.90421C42.1729 11.6559 42.4744 17.2907 41.4856 25.3907L41.5849 25.4028C42.5745 17.2955 42.2736 11.6493 41.4939 7.88393C41.104 6.00125 40.5942 4.58793 40.0656 3.57205C39.5374 2.55717 38.9885 1.93541 38.5182 1.64092L38.4652 1.72567ZM41.4855 25.3919C41.3167 27.1313 40.4719 32.5746 38.4433 40.4152L38.5401 40.4402C40.5696 32.5963 41.4156 27.1477 41.585 25.4016L41.4855 25.3919ZM38.4917 40.4277C38.5108 40.4739 38.5108 40.4739 38.5108 40.4739C38.5108 40.4739 38.5109 40.4739 38.5109 40.4739C38.5109 40.4739 38.511 40.4738 38.5111 40.4738C38.5112 40.4737 38.5115 40.4736 38.5119 40.4735C38.5126 40.4732 38.5138 40.4727 38.5153 40.4721C38.5183 40.4708 38.5229 40.469 38.5289 40.4666C38.541 40.4617 38.559 40.4546 38.5825 40.4454C38.6295 40.4272 38.6983 40.4011 38.7857 40.3698C38.9604 40.3071 39.2091 40.2235 39.5043 40.1399C40.0953 39.9725 40.8703 39.8059 41.6119 39.8059V39.7059C40.857 39.7059 40.072 39.8752 39.477 40.0437C39.1792 40.128 38.9284 40.2124 38.7519 40.2757C38.6637 40.3073 38.594 40.3337 38.5463 40.3522C38.5225 40.3615 38.5041 40.3688 38.4917 40.3738C38.4855 40.3762 38.4807 40.3782 38.4775 40.3795C38.4759 40.3801 38.4747 40.3806 38.4739 40.381C38.4735 40.3811 38.4732 40.3813 38.473 40.3813C38.4728 40.3814 38.4728 40.3814 38.4727 40.3815C38.4727 40.3815 38.4726 40.3815 38.4726 40.3815C38.4726 40.3815 38.4726 40.3815 38.4917 40.4277ZM41.6119 39.8059C41.7758 39.8059 41.9316 39.9067 42.0708 40.1089C42.2099 40.3108 42.327 40.6068 42.413 40.9779C42.585 41.7195 42.63 42.7484 42.49 43.8901C42.2098 46.174 41.1906 48.8952 38.9849 50.6582L39.0474 50.7364C41.2802 48.9517 42.3071 46.2022 42.5892 43.9023C42.7303 42.7521 42.6856 41.711 42.5105 40.9553C42.4229 40.5778 42.3021 40.2685 42.1532 40.0522C42.0044 39.8362 41.822 39.7059 41.6119 39.7059V39.8059ZM39.0287 50.6489C32.0441 48.8444 23.3797 49.2224 17.6096 51.8237L17.6507 51.9148C23.3959 49.3247 32.0362 48.9456 39.0036 50.7457L39.0287 50.6489ZM17.6096 51.8237C15.9108 52.5895 14.6295 52.7727 13.673 52.5221C12.7198 52.2725 12.0789 51.5891 11.6661 50.5953C11.2526 49.6001 11.07 48.2976 11.0336 46.8211C10.9973 45.3452 11.1072 43.6995 11.2762 42.0198L11.1767 42.0098C11.0075 43.6911 10.8972 45.3416 10.9337 46.8235C10.9701 48.3047 11.1533 49.6217 11.5737 50.6337C11.9948 51.6473 12.6559 52.3591 13.6477 52.6189C14.6363 52.8778 15.9431 52.6847 17.6507 51.9148L17.6096 51.8237ZM14.4467 18.0247C14.6054 15.6874 14.5419 11.9873 14.1532 8.61888C13.9589 6.93466 13.6831 5.33179 13.3125 4.02293C12.9428 2.71694 12.476 1.69356 11.8936 1.17902L11.8274 1.25397C12.3863 1.74772 12.8469 2.74558 13.2163 4.05017C13.5848 5.35189 13.8598 6.94893 14.0539 8.63034C14.4419 11.9932 14.5052 15.6872 14.3469 18.0179L14.4467 18.0247ZM38.4795 40.3792C36.0167 41.0017 33.489 41.6842 30.0223 41.8702C26.5557 42.0562 22.1482 41.7457 15.9293 40.3789L15.9078 40.4765C22.1333 41.8448 26.55 42.1567 30.0277 41.9701C33.5054 41.7835 36.0421 41.0985 38.504 40.4762L38.4795 40.3792ZM11.2759 42.0221C11.9734 37.2606 13.584 25.7953 14.4465 18.0268L14.3471 18.0158C13.4848 25.7824 11.8744 37.2463 11.1769 42.0076L11.2759 42.0221ZM15.8796 40.4591C16.5187 41.2514 17.3824 42.8537 17.5803 45.8459L17.68 45.8393C17.481 42.8295 16.6112 41.2068 15.9575 40.3963L15.8796 40.4591ZM17.6301 45.7926H14.9674V45.8926H17.6301V45.7926ZM14.9224 45.8642C15.2275 46.4993 15.6221 47.5268 15.8139 48.543C15.9099 49.051 15.9547 49.5543 15.9134 50.0033C15.872 50.4525 15.7447 50.8435 15.5 51.1317L15.5762 51.1965C15.8388 50.8871 15.9704 50.4737 16.0129 50.0125C16.0554 49.551 16.0092 49.0378 15.9122 48.5244C15.7183 47.4976 15.3204 46.4617 15.0125 45.8209L14.9224 45.8642ZM13.6207 50.4039C13.3265 49.3367 13.121 47.5464 13.3842 45.6745C13.6474 43.8027 14.3784 41.855 15.9517 40.4652L15.8855 40.3902C14.2883 41.8012 13.5504 43.7746 13.2852 45.6606C13.02 47.5464 13.2266 49.3505 13.5243 50.4305L13.6207 50.4039ZM10.1756 18.6248C9.35139 18.5952 7.58585 17.4531 7.43389 12.9782L7.33394 12.9816C7.48634 17.4692 9.26317 18.6921 10.1721 18.7248L10.1756 18.6248ZM7.43389 12.9782C7.28205 8.50713 8.76296 4.34532 9.52111 2.82594L9.43163 2.78129C8.66799 4.31167 7.18142 8.49002 7.33394 12.9816L7.43389 12.9782ZM9.52211 2.82381C9.71307 2.39124 10.0597 1.79602 10.4775 1.41202C10.6863 1.22009 10.9091 1.08449 11.1356 1.04459C11.3595 1.00514 11.5928 1.05814 11.8285 1.25488L11.8925 1.17811C11.6361 0.964065 11.3735 0.901138 11.1182 0.946106C10.8655 0.990618 10.6259 1.13977 10.4098 1.33839C9.97774 1.7355 9.62433 2.34463 9.43063 2.78342L9.52211 2.82381ZM10.2074 18.7119C10.6762 18.2883 11.3708 17.4952 11.9358 16.489C12.5007 15.4829 12.9382 14.2599 12.887 12.9779L12.787 12.9818C12.8373 14.2392 12.4081 15.4435 11.8486 16.44C11.2891 17.4364 10.6015 18.2211 10.1403 18.6377L10.2074 18.7119ZM11.2417 5.46349C11.0509 5.40242 10.8699 5.43536 10.7042 5.54229C10.5404 5.648 10.3919 5.82546 10.2587 6.05397C9.9922 6.5112 9.77822 7.18797 9.62674 7.95918C9.32367 9.50204 9.26723 11.4416 9.55429 12.8035L9.65214 12.7829C9.36853 11.4373 9.42367 9.5118 9.72486 7.97845C9.8755 7.21155 10.0868 6.54744 10.3451 6.10433C10.4743 5.88267 10.6131 5.72009 10.7584 5.62632C10.9019 5.53376 11.052 5.50777 11.2112 5.55873L11.2417 5.46349ZM9.55429 12.8035C9.67345 13.3689 9.89348 13.8622 10.1294 14.1593C10.2467 14.307 10.3728 14.4124 10.4979 14.4482C10.5617 14.4665 10.6258 14.4667 10.6869 14.4443C10.7478 14.4221 10.8017 14.3789 10.848 14.3169L10.7679 14.257C10.7305 14.3071 10.6914 14.3362 10.6526 14.3504C10.6141 14.3645 10.5719 14.3654 10.5254 14.3521C10.4302 14.3248 10.3203 14.2389 10.2078 14.0971C9.98408 13.8155 9.76911 13.3378 9.65214 12.7829L9.55429 12.8035ZM10.848 14.3169C11.0597 14.0335 11.3525 13.5834 11.4988 12.897C11.6451 12.2107 11.6441 11.2918 11.2743 10.0713L11.1786 10.1003C11.5442 11.3071 11.5433 12.2087 11.401 12.8761C11.2588 13.5434 10.9747 13.9802 10.7679 14.257L10.848 14.3169ZM12.887 12.9809C12.9027 12.2036 12.8839 11.152 12.7984 10.0818L12.6987 10.0897C12.7839 11.1563 12.8026 12.2045 12.787 12.9788L12.887 12.9809ZM12.7984 10.0818C12.7143 9.02899 12.5655 7.95578 12.3207 7.10741C12.1983 6.68332 12.0512 6.31309 11.8748 6.02915C11.6986 5.74571 11.4897 5.5429 11.2417 5.46349L11.2112 5.55873C11.4273 5.6279 11.6198 5.80834 11.7898 6.08193C11.9595 6.35502 12.1035 6.71557 12.2246 7.13514C12.4667 7.97406 12.6148 9.03959 12.6987 10.0897L12.7984 10.0818ZM11.2264 10.1358H12.7485V10.0358H11.2264V10.1358ZM14.3891 17.9719L12.2777 18.2986L12.293 18.3975L14.4044 18.0707L14.3891 17.9719ZM12.2777 18.2986L10.1662 18.6254L10.1815 18.7242L12.293 18.3975L12.2777 18.2986ZM10.835 14.329L12.8641 13.0219L12.8099 12.9378L10.7809 14.2449L10.835 14.329ZM15.5 51.1317C15.3931 51.2577 15.2903 51.3557 15.192 51.4297L15.2522 51.5096C15.3575 51.4303 15.4655 51.3269 15.5762 51.1965L15.5 51.1317ZM17.6507 51.1604C17.6324 51.4055 17.6093 51.641 17.5806 51.8629L17.6797 51.8757C17.7087 51.6517 17.732 51.4144 17.7504 51.1678L17.6507 51.1604ZM15.192 51.4297C15.1074 51.4935 15.0263 51.5393 14.9489 51.5701L14.9859 51.6631C15.0727 51.6285 15.1615 51.5779 15.2522 51.5096L15.192 51.4297ZM14.9489 51.5701C14.7823 51.6365 14.6303 51.634 14.4921 51.5856C14.3527 51.5367 14.2247 51.44 14.11 51.3137C13.8801 51.0605 13.7121 50.6974 13.6202 50.4024L13.5247 50.4321C13.619 50.7349 13.7927 51.113 14.036 51.3809C14.1578 51.5151 14.2992 51.6239 14.459 51.6799C14.62 51.7364 14.7969 51.7383 14.9859 51.6631L14.9489 51.5701ZM17.6653 50.9468C17.6608 51.0187 17.656 51.0899 17.6507 51.1604L17.7504 51.1678C17.7557 51.097 17.7606 51.0254 17.7651 50.9531L17.6653 50.9468ZM17.5803 45.8459C17.6499 46.8989 17.7525 48.767 17.6915 50.4154L17.7914 50.4191C17.8526 48.7652 17.7497 46.8928 17.68 45.8393L17.5803 45.8459ZM17.6915 50.4154C17.6848 50.5956 17.6762 50.7732 17.6653 50.9468L17.7651 50.9531C17.776 50.7785 17.7847 50.6001 17.7914 50.4191L17.6915 50.4154ZM15.2414 51.5158L17.7607 50.4633L17.7222 50.3711L15.2028 51.4235L15.2414 51.5158Z" fill="black"/>
<path d="M29.6978 8.83475C29.8802 8.38689 29.9266 7.48122 28.6533 7.44141" stroke="black" stroke-width="0.1" stroke-linecap="round"/>
<path d="M30.2715 8.20165C30.4584 7.60687 30.7186 6.73451 29.4131 6.68164" stroke="black" stroke-width="0.1" stroke-linecap="round"/>
<path d="M26.8948 17.1757C23.0441 16.8717 20.6459 18.569 19.9281 19.4557C18.7458 16.6268 17.4454 10.5889 21.7014 9.06885C25.9575 7.54884 26.937 13.8401 26.8948 17.1757Z" fill="white" stroke="black" stroke-width="0.1"/>
<path d="M22.6481 17.6506C20.4187 14.4079 21.4966 10.3963 22.1722 8.96073C26.6727 8.01777 26.7967 14.0132 26.9656 17.2432C25.7496 16.8378 23.5559 17.3128 22.6481 17.6506Z" fill="black" stroke="black" stroke-width="0.1"/>
<path d="M19.8495 10.3554C20.0818 9.78538 20.1409 8.6327 18.5195 8.58203" stroke="black" stroke-width="0.1" stroke-linecap="round"/>
<path d="M19.3101 11.243C19.4925 10.7951 19.5389 9.88942 18.2656 9.84961" stroke="black" stroke-width="0.1" stroke-linecap="round"/>
<path d="M22.3098 13.5162L21.0956 14.7402L20.8771 12.5572L22.3098 13.5162Z" fill="white"/>
<path d="M36.6525 15.5221C32.829 14.9733 30.3275 16.5144 29.5546 17.3535C28.5551 14.455 27.642 8.3465 31.9863 7.10079C36.3305 5.85508 36.9072 12.196 36.6525 15.5221Z" fill="white" stroke="black" stroke-width="0.1"/>
<path d="M32.3833 15.7269C30.3651 12.3487 31.6176 8.43963 32.3833 7.05003C36.0669 5.81291 37.0999 12.5413 36.6502 15.4928C35.4313 15.4928 33.3107 15.4476 32.3833 15.7269Z" fill="black" stroke="black" stroke-width="0.1"/>
<path d="M32.3176 12.1217L31.1034 13.3457L30.8849 11.1627L32.3176 12.1217Z" fill="white"/>
<path d="M22.3597 22.3733C25.7199 24.4666 33.0213 26.8359 35.3456 19.5664" stroke="black" stroke-width="0.1"/>
<path d="M22.8246 21.0406C22.8405 21.5091 22.8466 22.698 21.3653 22.8653" stroke="black" stroke-width="0.1"/>
<path d="M34.7344 18.5C34.8823 19.1305 35.4798 20.1803 36.6864 19.3356" stroke="black" stroke-width="0.1"/>
<path d="M30.7296 28.6347C31.4481 29.3019 33.2114 31.1777 37.1716 32.6294C37.1716 32.6294 38.482 33.2518 43.3784 33.18C43.9507 33.174 42.243 31.9845 40.5341 31.6463L40.9126 29.4169L41.3753 26.7248C47.5648 27.967 49.4809 30.6369 49.9681 31.4542C51.3866 33.8338 50.3771 35.8884 47.9794 36.8624C47.0186 37.2527 43.1484 38.3878 41.2061 38.5427C41.2061 38.5427 36.3811 38.9934 34.5405 38.9138C32.6999 38.8341 31.6393 39.343 31.3391 39.6074L29.5186 41.705C28.8436 42.274 28.3431 41.3725 29.6007 39.5321C30.8584 37.6918 29.4711 38.3346 28.5073 38.6526L27.3656 39.0513C27.1067 39.1254 26.4887 39.2181 26.0874 38.9959C25.6861 38.7737 25.7674 38.4273 26.1163 38.229C26.4652 38.0308 27.5165 37.4959 28.9304 36.9426C30.3443 36.3892 29.5469 35.9877 28.9715 35.8561C28.4448 35.7906 27.0271 35.5415 25.57 35.0687C24.113 34.596 25.209 33.8492 25.9106 33.9887C26.4004 34.0861 27.7824 34.2555 29.329 34.5273C30.8756 34.7991 29.9943 34.0867 29.3604 33.6965C28.6956 33.2196 27.1682 32.0781 26.3772 31.3269C25.5862 30.5757 26.0593 30.054 26.4158 30.3044L28.4223 31.4154C28.8822 31.6464 29.8508 32.3734 30.5871 32.4053C31.3233 32.4372 31.181 32.0469 31.0178 31.8478L30.2871 30.856C29.964 30.3726 29.3649 29.2414 29.5536 28.5838C29.7423 27.9262 30.4162 28.3437 30.7296 28.6347Z" fill="#FFE2A7" stroke="black" stroke-width="0.1"/>
<path d="M23.6336 25.7424C22.8227 26.2801 20.3884 27.4111 15.9807 27.5841C15.9807 27.5841 14.4802 27.7771 9.58233 26.2075C9.00922 26.0263 11.6485 25.5238 13.4653 25.7246L13.7797 23.2753L14.0749 20.6268C7.48958 19.9162 4.23565 21.8466 3.47245 22.5386C1.37571 24.44 2.56804 27.1852 3.6891 28.3467C4.69459 29.3884 8.27364 31.2534 10.1792 31.9968C10.1792 31.9968 14.8931 33.9064 16.7658 34.3945C18.6385 34.8827 19.5535 35.6939 19.7769 36.0385L20.9856 38.6006C21.4955 39.3512 22.2649 38.6433 21.5456 36.4995C20.8262 34.3558 22.1092 35.4334 22.9041 35.9945L23.9332 36.7253C24.1714 36.8755 24.7649 37.1536 25.2337 37.0643C25.7026 36.975 25.7233 36.6191 25.4314 36.3227C25.1395 36.0263 24.2415 35.1931 22.9846 34.231C21.7278 33.269 22.6476 33.1298 23.2646 33.1805C23.8131 33.2794 25.3111 33.4759 26.9146 33.4709C28.5182 33.4659 27.5788 32.4549 26.8918 32.3347C26.378 32.2448 24.9325 32.0158 23.2984 31.8014C21.6643 31.587 22.7602 31.1765 23.5125 30.998C24.3214 30.7462 26.1933 30.1238 27.2101 29.6486C28.2269 29.1734 27.9058 28.5299 27.4736 28.6599L25.1293 29.1063C24.591 29.2078 23.411 29.5837 22.6619 29.3884C21.9128 29.1932 22.1712 28.864 22.394 28.7238L23.4213 28.0002C23.8889 27.6374 24.8252 26.7403 24.8301 26.0542C24.8349 25.3682 24.0344 25.5605 23.6336 25.7424Z" fill="#FFE2A7" stroke="black" stroke-width="0.1"/>
</svg>
