<svg width="301" height="228" viewBox="0 0 301 228" fill="none" xmlns="http://www.w3.org/2000/svg">
<path d="M283.161 117.562C287.442 128.425 267.277 144.065 256.659 150.527C242.24 156.137 226.804 166.56 180.088 153.912C142.716 143.794 122.032 130.185 116.362 124.645C113.359 122.516 106.955 119.509 105.362 124.507C103.769 129.506 109.659 137.911 112.803 141.489L119.886 148.816C121.462 150.284 122.892 153.197 116.006 153.111C109.119 153.025 99.4834 148.4 95.5263 146.099L76.4937 138.14C73.0979 136.326 68.813 140.36 76.3971 145.86C83.9812 151.359 98.5455 159.648 104.88 163.105C110.903 165.915 119.32 171.103 104.801 169.377C90.2824 167.652 77.3452 166.411 72.7263 166.032C66.5515 165.524 56.0897 170.988 69.8241 174.248C83.5585 177.508 96.8674 179.09 101.805 179.474C107.215 180.345 114.768 183.207 101.703 187.676C88.6368 192.145 78.9537 196.399 75.7454 197.967C72.5371 199.535 71.8665 202.165 75.673 203.757C79.4795 205.349 85.2295 204.52 87.6287 203.906L98.192 200.661C106.37 196.902 119.908 192.922 108.635 207.064C97.3611 221.207 102.27 227.901 108.429 223.469L124.894 207.268C127.631 205.211 137.407 201.151 154.623 201.366C171.839 201.582 203.26 201.975 203.26 201.975C229.175 200.972 284.453 196.272 298.245 185.49" stroke="#6877FF" stroke-width="5"/>
<path d="M17.3453 110.672C13.0635 99.8093 33.2288 84.1695 43.8466 77.7074C58.2659 72.0971 73.702 61.6741 120.418 74.3221C157.79 84.4406 178.474 98.0499 184.144 103.59C187.147 105.718 193.55 108.726 195.143 103.727C196.737 98.7286 190.847 90.3229 187.703 86.7449L180.62 79.418C179.044 77.9507 177.614 75.0375 184.5 75.1236C191.387 75.2097 201.023 79.834 204.98 82.1354L224.012 90.0943C227.408 91.908 231.693 87.8741 224.109 82.3747C216.525 76.8753 201.96 68.5862 195.626 65.1292C189.603 62.3194 181.186 57.1312 195.705 58.857C210.223 60.5827 223.161 61.8232 227.78 62.2026C233.954 62.7099 244.416 57.2465 230.682 53.9863C216.947 50.7262 203.638 49.1443 198.701 48.7609C193.291 47.8889 185.738 45.0278 198.803 40.5588C211.869 36.0897 221.552 31.8356 224.76 30.2673C227.969 28.6989 228.639 26.0693 224.833 24.4776C221.026 22.8858 215.276 23.7146 212.877 24.328L202.314 27.5738C194.136 31.3319 180.598 35.3125 191.871 21.17C203.145 7.02747 198.236 0.33327 192.076 4.76582L175.611 20.9666C172.875 23.0235 163.099 27.0833 145.883 26.868C128.667 26.6527 97.2459 26.2597 97.2459 26.2597C71.3311 27.2621 16.0533 31.9625 2.2609 42.7445" stroke="#6877FF" stroke-width="5"/>
</svg>
