<svg width="3077" height="3177" viewBox="0 0 3077 3177" fill="none" xmlns="http://www.w3.org/2000/svg">
<g filter="url(#filter0_d_269_78)">
<path d="M719.676 16.3275C1043.11 103.951 1821.93 232.338 2349.77 44.9003C2462.32 115.38 2657.16 504.35 2536.06 1496.4C2525.71 1603.07 2473.97 1936.42 2349.77 2416.44C2349.77 2416.44 2449.16 2375.32 2540.75 2375.32C2632.35 2375.32 2653.55 2827.89 2381.87 3045.04C1954.87 2934.72 1425.26 2957.89 1072.84 3116.78C655.833 3304.77 639.465 2925.03 680.864 2513.59C723.557 2222.14 822.137 1520.4 874.921 1044.95L745.679 1064.95L616.437 1084.95C563.394 1083.04 454.98 1010.66 445.665 736.361C436.35 462.062 527.17 206.813 573.744 113.475C597.289 60.1391 659.439 -33.9605 719.676 16.3275Z" fill="#FFEFD0"/>
<path d="M2349.77 44.9003L2350.83 43.2052L2350.01 42.692L2349.1 43.0156L2349.77 44.9003ZM2536.06 1496.4L2534.08 1496.15L2534.08 1496.18L2534.07 1496.2L2536.06 1496.4ZM2349.77 2416.44L2350.26 2418.38L2350.4 2418.34L2350.53 2418.29L2349.77 2416.44ZM2381.87 3045.04L2381.37 3046.98L2382.34 3047.23L2383.12 3046.6L2381.87 3045.04ZM680.864 2513.59L678.885 2513.3L678.879 2513.34L678.874 2513.39L680.864 2513.59ZM874.921 1044.95L876.909 1045.17L876.914 1045.12L876.917 1045.08L874.921 1044.95ZM968.07 2416.44L968.499 2414.49C967.875 2414.35 967.224 2414.52 966.745 2414.94L968.07 2416.44ZM909.852 2747.88V2745.88H906.672L908.049 2748.75L909.852 2747.88ZM944.782 3073.61L946.307 3074.91L944.782 3073.61ZM824.466 3027.9L822.538 3028.43L822.547 3028.46L822.556 3028.49L824.466 3027.9ZM616.437 1084.95L616.365 1086.95L616.555 1086.95L616.743 1086.92L616.437 1084.95ZM445.665 736.361L443.666 736.429L445.665 736.361ZM573.744 113.475L575.533 114.368L575.554 114.326L575.574 114.283L573.744 113.475ZM680.864 279.2L680.255 281.105L680.864 279.2ZM581.508 724.935L583.465 724.523L581.508 724.935ZM655.25 816.368L653.648 815.171L655.25 816.368ZM680.864 559.213V557.213H678.168L678.95 559.793L680.864 559.213ZM774.033 559.213L776.027 559.054L774.033 559.213ZM745.679 1064.95L745.985 1066.92L745.679 1064.95ZM1077.15 3073.61L1079.14 3073.76L1077.15 3073.61ZM909.852 3101.31L910.592 3103.17H910.592L909.852 3101.31ZM1078.04 3060.5L1080.04 3060.63L1078.04 3060.5ZM1079.65 3027.9L1081.65 3027.97L1079.65 3027.9ZM719.153 18.258C880.99 62.1024 1156.68 116.128 1457.94 135.757C1759.16 155.384 2086.14 140.637 2350.44 46.785L2349.1 43.0156C2085.55 136.601 1759.21 151.379 1458.2 131.766C1157.22 112.155 881.793 58.1758 720.199 14.3971L719.153 18.258ZM2348.71 46.5954C2376.42 63.95 2409.5 101.128 2441.62 162.847C2473.71 224.526 2504.78 310.574 2528.58 425.466C2576.16 655.252 2594.61 1000.28 2534.08 1496.15L2538.05 1496.64C2598.61 1000.47 2580.19 654.986 2532.49 424.655C2508.64 309.489 2477.47 223.077 2445.16 161C2412.88 98.9638 2379.39 61.0903 2350.83 43.2052L2348.71 46.5954ZM2534.07 1496.2C2523.74 1602.74 2472.01 1935.98 2347.83 2415.94L2351.7 2416.94C2475.92 1936.85 2527.69 1603.4 2538.06 1496.59L2534.07 1496.2ZM2349.77 2416.44C2350.53 2418.29 2350.53 2418.29 2350.53 2418.29C2350.53 2418.29 2350.54 2418.29 2350.54 2418.29C2350.54 2418.28 2350.54 2418.28 2350.55 2418.28C2350.56 2418.28 2350.58 2418.27 2350.6 2418.26C2350.65 2418.24 2350.72 2418.21 2350.81 2418.17C2351 2418.1 2351.28 2417.98 2351.65 2417.83C2352.4 2417.53 2353.5 2417.1 2354.94 2416.54C2357.82 2415.42 2362.05 2413.82 2367.4 2411.9C2378.12 2408.05 2393.36 2402.93 2411.46 2397.8C2447.67 2387.55 2495.22 2377.32 2540.75 2377.32V2373.32C2494.69 2373.32 2446.74 2383.65 2410.37 2393.96C2392.17 2399.11 2376.84 2404.26 2366.05 2408.13C2360.66 2410.07 2356.41 2411.68 2353.49 2412.81C2352.04 2413.37 2350.92 2413.82 2350.16 2414.12C2349.78 2414.27 2349.5 2414.39 2349.3 2414.47C2349.2 2414.51 2349.13 2414.54 2349.08 2414.56C2349.06 2414.57 2349.04 2414.58 2349.02 2414.58C2349.02 2414.58 2349.01 2414.59 2349.01 2414.59C2349.01 2414.59 2349.01 2414.59 2349.01 2414.59C2349 2414.59 2349 2414.59 2349.77 2416.44ZM2540.75 2377.32C2551.28 2377.32 2561.09 2383.8 2569.72 2396.32C2578.34 2408.84 2585.54 2427.1 2590.83 2449.88C2601.38 2495.42 2604.14 2558.53 2595.55 2628.5C2578.38 2768.47 2515.92 2935.33 2380.62 3043.48L2383.12 3046.6C2519.5 2937.59 2582.27 2769.6 2599.52 2628.99C2608.15 2558.68 2605.41 2495.08 2594.72 2448.97C2589.38 2425.94 2582.03 2407.14 2573.01 2394.06C2564.01 2380.98 2553.13 2373.32 2540.75 2373.32V2377.32ZM2382.37 3043.1C1955.03 2932.7 1424.93 2955.84 1072.01 3114.95L1073.66 3118.6C1425.58 2959.94 1954.71 2936.75 2381.37 3046.98L2382.37 3043.1ZM1072.01 3114.95C967.939 3161.87 889.236 3173.19 830.352 3157.76C771.595 3142.37 732.152 3100.24 706.796 3039.21C681.415 2978.11 670.229 2898.23 668.003 2807.8C665.778 2717.4 672.508 2616.62 682.854 2513.79L678.874 2513.39C668.521 2616.28 661.773 2717.26 664.004 2807.9C666.235 2898.52 677.441 2978.97 703.102 3040.74C728.788 3102.57 769.039 3145.84 829.339 3161.63C889.511 3177.39 969.231 3165.68 1073.66 3118.6L1072.01 3114.95ZM876.917 1045.08C886.629 902.087 882.743 675.668 858.959 469.548C847.067 366.487 830.193 268.437 807.532 188.398C784.904 108.473 756.402 46.1029 721 14.8287L718.352 17.8264C752.812 48.2693 781.072 109.619 803.684 189.488C826.263 269.241 843.106 367.058 854.985 470.006C878.744 675.905 882.62 902.079 872.926 1044.81L876.917 1045.08ZM2349.28 2414.5C2198.54 2452.6 2043.73 2494.4 1831.42 2505.8C1619.11 2517.19 1349.22 2498.16 968.499 2414.49L967.64 2418.39C1348.63 2502.13 1618.88 2521.2 1831.63 2509.79C2044.38 2498.38 2199.56 2456.47 2350.26 2418.38L2349.28 2414.5ZM682.843 2513.88C725.536 2222.43 824.121 1520.65 876.909 1045.17L872.934 1044.73C820.154 1520.14 721.577 2221.86 678.885 2513.3L682.843 2513.88ZM966.513 2417.69C1005.78 2466.39 1058.72 2564.68 1070.84 2748.01L1074.83 2747.75C1062.66 2563.71 1009.49 2464.6 969.626 2415.18L966.513 2417.69ZM1072.84 2745.88H909.852V2749.88H1072.84V2745.88ZM908.049 2748.75C926.753 2787.68 950.943 2850.66 962.708 2912.98C968.59 2944.13 971.351 2975.04 968.807 3002.66C966.262 3030.28 958.424 3054.45 943.258 3072.32L946.307 3074.91C962.19 3056.2 970.201 3031.13 972.79 3003.02C975.38 2974.91 972.562 2943.6 966.639 2912.23C954.793 2849.49 930.468 2786.18 911.655 2747.02L908.049 2748.75ZM826.394 3027.36C808.352 2961.9 795.76 2852.17 811.892 2737.45C828.024 2622.73 872.842 2503.23 969.394 2417.94L966.745 2414.94C869.239 2501.08 824.143 2621.6 807.931 2736.89C791.72 2852.17 804.355 2962.45 822.538 3028.43L826.394 3027.36ZM616.509 1082.95C565.158 1081.11 456.97 1010.34 447.664 736.293L443.666 736.429C452.99 1010.98 561.63 1084.98 616.365 1086.95L616.509 1082.95ZM447.664 736.293C438.363 462.405 529.069 207.485 575.533 114.368L571.954 112.582C525.27 206.14 434.338 461.72 443.666 736.429L447.664 736.293ZM575.574 114.283C587.291 87.7391 608.579 51.1586 634.304 27.5148C647.163 15.6958 660.978 7.25212 675.12 4.76088C689.158 2.28789 703.75 5.63705 718.394 17.8629L720.958 14.7922C705.484 1.87402 689.718 -1.87238 674.426 0.821534C659.237 3.49719 644.748 12.4829 631.597 24.5698C605.302 48.7377 583.742 85.8749 571.914 112.667L575.574 114.283ZM617.778 1086.43C646.395 1060.58 688.838 1012.12 723.362 950.634C757.883 889.153 784.571 814.492 781.446 736.281L777.449 736.441C780.535 813.663 754.179 887.58 719.874 948.676C685.57 1009.77 643.403 1057.89 615.096 1083.46L617.778 1086.43ZM681.474 277.296C670.13 273.665 659.381 275.607 649.474 282C639.642 288.344 630.657 299.048 622.547 312.963C606.321 340.8 593.252 382.091 583.989 429.25C565.458 523.588 562.017 642.159 579.551 725.348L583.465 724.523C566.069 641.989 569.458 523.978 587.914 430.021C597.143 383.034 610.107 342.249 626.003 314.977C633.953 301.337 642.551 291.227 651.642 285.361C660.659 279.543 670.174 277.879 680.255 281.105L681.474 277.296ZM579.551 725.348C586.822 759.843 600.236 789.873 614.549 807.897C621.677 816.874 629.224 823.12 636.566 825.22C640.285 826.283 643.976 826.287 647.479 825.006C650.97 823.728 654.113 821.233 656.853 817.565L653.648 815.171C651.265 818.361 648.713 820.294 646.104 821.249C643.506 822.2 640.692 822.239 637.666 821.374C631.519 819.616 624.621 814.148 617.682 805.41C603.86 788.004 590.648 758.602 583.465 724.523L579.551 725.348ZM656.853 817.565C669.758 800.289 687.59 772.88 696.501 731.067C705.411 689.259 705.371 633.197 682.778 558.633L678.95 559.793C701.377 633.808 701.338 689.18 692.589 730.233C683.841 771.281 666.356 798.16 653.648 815.171L656.853 817.565ZM781.448 736.401C782.407 688.854 781.256 624.523 776.027 559.054L772.04 559.373C777.257 624.695 778.406 688.892 777.448 736.321L781.448 736.401ZM776.027 559.054C770.882 494.642 761.783 429.032 746.825 377.203C739.347 351.293 730.378 328.734 719.648 311.469C708.931 294.224 696.32 282.048 681.474 277.296L680.255 281.105C693.821 285.448 705.778 296.73 716.251 313.58C726.711 330.411 735.556 352.583 742.982 378.313C757.831 429.763 766.903 495.066 772.04 559.373L776.027 559.054ZM680.864 561.213H774.033V557.213H680.864V561.213ZM874.615 1042.97L745.373 1062.97L745.985 1066.92L875.227 1046.92L874.615 1042.97ZM745.373 1062.97L616.131 1082.97L616.743 1086.92L745.985 1066.92L745.373 1062.97ZM656.333 818.049L780.531 738.042L778.365 734.68L654.167 814.687L656.333 818.049ZM943.258 3072.32C936.673 3080.07 930.325 3086.13 924.235 3090.72L926.642 3093.91C933.012 3089.11 939.57 3082.84 946.307 3074.91L943.258 3072.32ZM1075.15 3073.46C1074.03 3088.48 1072.61 3102.92 1070.85 3116.52L1074.82 3117.03C1076.59 3103.35 1078.01 3088.84 1079.14 3073.76L1075.15 3073.46ZM924.235 3090.72C918.993 3094.67 913.948 3097.53 909.112 3099.45L910.592 3103.17C915.804 3101.09 921.157 3098.05 926.642 3093.91L924.235 3090.72ZM909.112 3099.45C898.673 3103.61 889.103 3103.46 880.404 3100.41C871.658 3097.34 863.679 3091.3 856.582 3083.48C842.37 3067.83 832.022 3045.44 826.376 3027.3L822.556 3028.49C828.3 3046.94 838.874 3069.93 853.621 3086.17C861.004 3094.3 869.514 3100.83 879.08 3104.19C888.693 3107.56 899.259 3107.68 910.592 3103.17L909.112 3099.45ZM1076.05 3060.38C1075.77 3064.78 1075.47 3069.15 1075.15 3073.46L1079.14 3073.76C1079.46 3069.43 1079.76 3065.05 1080.04 3060.63L1076.05 3060.38ZM1070.84 2748.01C1075.1 2812.48 1081.38 2926.87 1077.65 3027.82L1081.65 3027.97C1085.39 2926.8 1079.1 2812.23 1074.83 2747.75L1070.84 2748.01ZM1077.65 3027.82C1077.24 3038.86 1076.71 3049.74 1076.05 3060.38L1080.04 3060.63C1080.71 3049.96 1081.24 3039.04 1081.65 3027.97L1077.65 3027.82ZM926.209 3094.16L1080.42 3029.74L1078.88 3026.05L924.668 3090.47L926.209 3094.16Z" fill="black"/>
<path d="M1811.49 482.704C1822.65 455.291 1825.49 399.855 1747.56 397.418" stroke="black" stroke-width="4" stroke-linecap="round"/>
<path d="M1846.62 443.93C1858.07 407.524 1873.99 354.127 1794.08 350.891" stroke="black" stroke-width="4" stroke-linecap="round"/>
<path d="M1640.03 993.143C1404.33 974.535 1257.53 1078.43 1213.59 1132.7C1141.23 959.543 1061.63 589.964 1322.14 496.924C1582.65 403.885 1642.61 788.97 1640.03 993.143Z" fill="#FFF8E9" stroke="black" stroke-width="4"/>
<path d="M1380.05 1022.28C1243.59 823.791 1313.65 577.871 1355 490C1590 442.002 1633.66 796.292 1644 994.001C1570 978 1435.62 1001.6 1380.05 1022.28Z" fill="black" stroke="black" stroke-width="4"/>
<path d="M1208.7 575.726C1222.92 540.836 1226.53 470.281 1127.29 467.18" stroke="black" stroke-width="4" stroke-linecap="round"/>
<path d="M1175.72 629.982C1186.88 602.568 1189.72 547.132 1111.79 544.695" stroke="black" stroke-width="4" stroke-linecap="round"/>
<path d="M1359.32 769.195L1285 844.115L1271.63 710.491L1359.32 769.195Z" fill="#FFF8E9"/>
<path d="M2237.17 892.018C2003.14 858.428 1850.02 952.756 1802.71 1004.12C1741.53 826.701 1685.64 452.8 1951.55 376.551C2217.47 300.301 2252.76 688.425 2237.17 892.018Z" fill="#FFF8E9" stroke="black" stroke-width="4"/>
<path d="M1975.88 904.502C1852.34 697.725 1929.01 456.057 1975.88 371C2201.35 295.276 2255 693.002 2237.06 890.177C2172 875.002 2032.65 887.41 1975.88 904.502Z" fill="black" stroke="black" stroke-width="4"/>
<path d="M1971.84 683.913L1897.52 758.833L1884.14 625.21L1971.84 683.913Z" fill="#FFF8E9"/>
<path d="M1362.36 1311.36C1568.03 1439.49 2014.95 1584.51 2157.22 1139.55" stroke="black" stroke-width="4"/>
<path d="M1390.82 1229.82C1391.8 1258.5 1392.17 1331.28 1301.5 1341.52" stroke="black" stroke-width="4"/>
<path d="M2119.79 1074.23C2128.84 1112.83 2165.41 1177.08 2239.27 1125.38" stroke="black" stroke-width="4"/>
<path d="M1857.7 1695.65C1893.58 1741.61 2009.61 1851.3 2252.01 1940.16C2252.01 1940.16 2332.22 1978.26 2631.94 1973.87C2666.96 1973.5 2576.07 1906.7 2471.46 1886L2499 1741.34L2523 1600C2901.86 1676.03 3018.43 1811.65 3035.29 1868.23C3119.26 2016.99 2995.52 2154.3 2923.16 2204.36C2869.14 2259.81 2617.85 2292.63 2498.96 2302.11C2498.96 2302.11 2203.63 2329.7 2090.97 2324.83C1978.3 2319.95 1913.39 2351.1 1895.01 2367.28L1783.58 2495.68C1742.26 2530.51 1711.62 2475.32 1788.6 2362.68C1865.59 2250.03 1776.06 2279.85 1721.68 2308.84L1651.79 2333.24C1635.95 2337.78 1598.11 2343.46 1573.55 2329.86C1548.99 2316.26 1553.97 2295.05 1575.32 2282.92C1596.68 2270.78 1661.03 2238.04 1747.57 2204.17C1834.12 2170.3 1785.31 2145.72 1750.09 2137.67C1717.85 2133.66 1631.07 2118.41 1541.88 2089.47C1452.7 2060.54 1522.42 2018.13 1562.73 2023.37C1592.88 2027.28 1677.3 2039.7 1771.97 2056.33C1866.64 2072.97 1812.7 2029.36 1773.89 2005.48C1733.2 1976.29 1639.71 1906.42 1591.29 1860.44C1542.87 1814.46 1571.83 1782.52 1593.66 1797.85L1716.47 1865.86C1741.86 1885.24 1803.91 1924.5 1848.98 1926.45C1894.04 1928.4 1885.33 1904.51 1875.34 1892.32L1830.62 1831.61C1810.84 1802.02 1774.17 1732.78 1785.72 1692.53C1797.27 1652.28 1838.52 1677.84 1857.7 1695.65Z" fill="#FFE2A7" stroke="black" stroke-width="4"/>
<path d="M1436.2 1518.78C1386.84 1551.77 1238.71 1621.23 970.704 1632.28C970.704 1632.28 879.452 1644.25 581.834 1548.74C547.009 1537.72 707.533 1506.69 817.973 1518.78L856.741 1219.02C456.429 1176.25 244.286 1276 210.755 1324.93C83.0655 1441.48 165.91 1610.37 223.293 1680.25C260.792 1749.68 501.715 1857.6 617.489 1902.87C617.489 1902.87 903.887 2019.21 1017.69 2048.87C1131.5 2078.53 1187.04 2128.07 1200.59 2149.13L1273.8 2305.75C1304.72 2351.62 1351.57 2308.23 1308.07 2177.14C1264.57 2046.06 1345.05 2101.83 1390.73 2146.1L1453.22 2190.7C1467.68 2199.87 1503.73 2216.82 1532.25 2211.3C1560.77 2205.79 1562.06 2184.01 1544.35 2165.91C1526.63 2147.81 1472.13 2096.93 1395.82 2038.2C1319.51 1979.48 1375.45 1970.86 1412.95 1973.9C1446.29 1979.89 1537.34 1991.75 1634.84 1991.28C1732.34 1990.8 1675.33 1929.04 1633.58 1921.76C1602.35 1916.32 1514.49 1902.46 1415.16 1889.52C1315.83 1876.57 1382.51 1851.34 1428.26 1840.34C1477.47 1824.85 1591.35 1786.57 1653.22 1757.39C1715.09 1728.21 1695.65 1688.87 1669.35 1696.87L1526.77 1724.43C1495.72 1735.22 1422.25 1753.82 1376.72 1741.96C1331.2 1730.09 1346.94 1709.92 1360.51 1701.32L1423.05 1656.94C1451.51 1634.7 1508.54 1579.71 1508.91 1537.74C1509.28 1495.76 1460.59 1507.61 1436.2 1518.78Z" fill="#FFE2A7" stroke="black" stroke-width="4"/>
</g>
<defs>
<filter id="filter0_d_269_78" x="137.422" y="0" width="2932.02" height="3176.24" filterUnits="userSpaceOnUse" color-interpolation-filters="sRGB">
<feFlood flood-opacity="0" result="BackgroundImageFix"/>
<feColorMatrix in="SourceAlpha" type="matrix" values="0 0 0 0 0 0 0 0 0 0 0 0 0 0 0 0 0 0 127 0" result="hardAlpha"/>
<feOffset dy="4"/>
<feGaussianBlur stdDeviation="2"/>
<feComposite in2="hardAlpha" operator="out"/>
<feColorMatrix type="matrix" values="0 0 0 0 0 0 0 0 0 0 0 0 0 0 0 0 0 0 0.25 0"/>
<feBlend mode="normal" in2="BackgroundImageFix" result="effect1_dropShadow_269_78"/>
<feBlend mode="normal" in="SourceGraphic" in2="effect1_dropShadow_269_78" result="shape"/>
</filter>
</defs>
</svg>
