<svg width="1536" height="1591" viewBox="0 0 1536 1591" fill="none" xmlns="http://www.w3.org/2000/svg">
<g filter="url(#filter0_d_408_2)">
<path d="M359.641 10.1028C520.861 53.7803 909.081 117.777 1172.19 24.3455C1228.3 59.4774 1325.42 253.368 1265.06 747.873C1259.9 801.046 1234.1 967.211 1172.19 1206.49C1172.19 1206.49 1221.74 1185.99 1267.39 1185.99C1313.05 1185.99 1323.62 1411.58 1188.19 1519.83C975.348 1464.84 711.353 1476.39 535.68 1555.58C327.817 1649.3 319.658 1460.01 340.294 1254.91C361.575 1109.64 410.715 759.837 437.026 522.839L372.602 532.809L308.179 542.779C281.739 541.829 227.697 505.748 223.054 369.018C218.411 232.288 263.682 105.054 286.898 58.5279C298.634 31.9416 329.614 -14.9643 359.641 10.1028Z" fill="#FFEFD0"/>
<path d="M1172.19 24.3455L1173.25 22.6504L1172.44 22.1372L1171.52 22.4608L1172.19 24.3455ZM1265.06 747.873L1263.07 747.631L1263.07 747.656L1263.07 747.68L1265.06 747.873ZM1172.19 1206.49L1172.68 1208.43L1172.82 1208.39L1172.96 1208.34L1172.19 1206.49ZM1188.19 1519.83L1187.69 1521.76L1188.66 1522.01L1189.44 1521.39L1188.19 1519.83ZM535.68 1555.58L536.502 1557.41L536.502 1557.41L535.68 1555.58ZM340.294 1254.91L338.315 1254.62L338.309 1254.67L338.304 1254.71L340.294 1254.91ZM437.026 522.839L439.014 523.06L439.018 523.017L439.021 522.975L437.026 522.839ZM483.457 1206.49L483.887 1204.53C483.263 1204.4 482.612 1204.57 482.133 1204.99L483.457 1206.49ZM535.68 1371.7L537.676 1371.57L537.676 1371.57L535.68 1371.7ZM454.438 1371.7V1369.7H451.258L452.635 1372.57L454.438 1371.7ZM471.849 1534.07L470.325 1532.77L470.325 1532.77L471.849 1534.07ZM411.875 1511.28L409.947 1511.81L409.956 1511.84L409.966 1511.88L411.875 1511.28ZM308.179 542.779L308.107 544.778L308.297 544.784L308.485 544.755L308.179 542.779ZM223.054 369.018L225.053 368.95L223.054 369.018ZM286.898 58.5279L288.687 59.4209L288.708 59.3787L288.727 59.3356L286.898 58.5279ZM340.294 141.137L339.684 143.042L339.684 143.042L340.294 141.137ZM290.768 363.323L288.811 363.735L288.811 363.735L290.768 363.323ZM340.294 280.715V278.715H337.598L338.38 281.295L340.294 280.715ZM386.736 280.715L388.73 280.556L388.73 280.556L386.736 280.715ZM372.602 532.809L372.908 534.785L372.908 534.785L372.602 532.809ZM537.829 1534.07L535.834 1533.92L535.834 1533.92L537.829 1534.07ZM454.438 1547.88L453.698 1546.02L453.698 1546.02L454.438 1547.88ZM538.276 1527.54L536.28 1527.41L536.28 1527.41L538.276 1527.54ZM539.076 1511.28L541.074 1511.35L541.074 1511.35L539.076 1511.28ZM359.118 12.0332C439.849 33.9049 577.341 60.8469 727.578 70.636C877.782 80.423 1040.93 73.0793 1172.86 26.2302L1171.52 22.4608C1040.34 69.0436 877.826 76.4173 727.838 66.6444C577.881 56.8736 440.652 29.9782 360.164 8.17238L359.118 12.0332ZM1171.13 26.0406C1184.73 34.5583 1201.12 52.9157 1217.09 83.6014C1233.04 114.247 1248.5 157.048 1260.34 214.25C1284.03 328.654 1293.23 500.524 1263.07 747.631L1267.04 748.116C1297.24 500.717 1288.06 328.389 1264.26 213.439C1252.36 155.963 1236.79 112.798 1220.64 81.7548C1204.5 50.752 1187.7 31.6986 1173.25 22.6504L1171.13 26.0406ZM1263.07 747.68C1257.92 800.718 1232.15 966.775 1170.26 1205.99L1174.13 1206.99C1236.06 967.646 1261.88 801.374 1267.05 748.066L1263.07 747.68ZM1172.19 1206.49C1172.96 1208.34 1172.96 1208.34 1172.96 1208.34C1172.96 1208.34 1172.96 1208.34 1172.96 1208.34C1172.96 1208.33 1172.96 1208.33 1172.96 1208.33C1172.97 1208.33 1172.98 1208.33 1172.99 1208.32C1173.01 1208.31 1173.05 1208.3 1173.09 1208.28C1173.18 1208.24 1173.32 1208.19 1173.51 1208.11C1173.87 1207.97 1174.42 1207.75 1175.14 1207.47C1176.56 1206.92 1178.66 1206.12 1181.32 1205.17C1186.65 1203.26 1194.22 1200.71 1203.22 1198.16C1221.23 1193.06 1244.83 1187.99 1267.39 1187.99V1183.99C1244.3 1183.99 1220.3 1189.17 1202.13 1194.31C1193.03 1196.89 1185.37 1199.47 1179.97 1201.4C1177.28 1202.37 1175.15 1203.18 1173.69 1203.74C1172.96 1204.03 1172.4 1204.25 1172.02 1204.4C1171.83 1204.48 1171.68 1204.54 1171.58 1204.58C1171.53 1204.6 1171.5 1204.61 1171.47 1204.62C1171.46 1204.63 1171.45 1204.63 1171.44 1204.63C1171.44 1204.64 1171.43 1204.64 1171.43 1204.64C1171.43 1204.64 1171.43 1204.64 1171.43 1204.64C1171.43 1204.64 1171.43 1204.64 1172.19 1206.49ZM1267.39 1187.99C1272.18 1187.99 1276.8 1190.93 1281.01 1197.03C1285.2 1203.12 1288.76 1212.09 1291.38 1223.38C1296.61 1245.94 1297.98 1277.28 1293.71 1312.07C1285.18 1381.68 1254.12 1464.57 1186.95 1518.26L1189.44 1521.39C1257.7 1466.83 1289.07 1382.81 1297.69 1312.56C1302 1277.43 1300.63 1245.6 1295.27 1222.48C1292.6 1210.93 1288.89 1201.43 1284.3 1194.76C1279.72 1188.1 1274.03 1183.99 1267.39 1183.99V1187.99ZM1188.69 1517.89C975.505 1462.81 711.029 1474.34 534.858 1553.76L536.502 1557.41C711.677 1478.43 975.192 1466.86 1187.69 1521.76L1188.69 1517.89ZM534.858 1553.76C483.068 1577.11 444.092 1582.65 415.063 1575.05C386.161 1567.48 366.703 1546.76 354.147 1516.53C341.565 1486.25 335.994 1446.58 334.886 1401.55C333.778 1356.54 337.128 1306.35 342.284 1255.11L338.304 1254.71C333.142 1306.02 329.773 1356.4 330.887 1401.64C332 1446.86 337.591 1487.11 350.453 1518.07C363.339 1549.09 383.606 1570.94 414.05 1578.92C444.367 1586.86 484.36 1580.92 536.502 1557.41L534.858 1553.76ZM439.021 522.975C443.867 451.63 441.928 338.706 430.065 235.905C424.134 184.504 415.715 135.57 404.399 95.6015C393.116 55.7475 378.847 24.4017 360.965 8.60391L358.316 11.6017C375.258 26.5681 389.283 56.893 400.551 96.6912C411.786 136.374 420.174 185.075 426.092 236.363C437.928 338.942 439.858 451.621 435.03 522.704L439.021 522.975ZM1171.7 1204.55C1096.56 1223.54 1019.48 1244.36 913.756 1250.03C808.036 1255.7 673.601 1246.23 483.887 1204.53L483.028 1208.44C673.007 1250.2 807.811 1259.72 913.971 1254.02C1020.13 1248.33 1097.57 1227.41 1172.68 1208.43L1171.7 1204.55ZM342.273 1255.2C363.554 1109.92 412.698 760.094 439.014 523.06L435.038 522.618C408.731 759.58 359.595 1109.35 338.315 1254.62L342.273 1255.2ZM481.901 1207.74C501.329 1231.83 527.653 1280.62 533.685 1371.83L537.676 1371.57C531.598 1279.66 505.03 1230.05 485.014 1205.23L481.901 1207.74ZM535.68 1369.7H454.438V1373.7H535.68V1369.7ZM452.635 1372.57C461.931 1391.92 473.955 1423.23 479.799 1454.18C482.721 1469.66 484.083 1484.97 482.826 1498.61C481.568 1512.26 477.705 1524.08 470.325 1532.77L473.374 1535.36C481.471 1525.83 485.507 1513.1 486.809 1498.98C488.112 1484.84 486.692 1469.13 483.73 1453.44C477.805 1422.06 465.646 1390.42 456.24 1370.84L452.635 1372.57ZM413.803 1510.75C404.845 1478.25 398.579 1423.69 406.601 1366.64C414.622 1309.6 436.893 1250.29 484.782 1207.99L482.133 1204.99C433.29 1248.14 410.741 1308.47 402.64 1366.08C394.54 1423.69 400.848 1478.8 409.947 1511.81L413.803 1510.75ZM308.251 540.78C283.503 539.891 229.688 505.427 225.053 368.95L221.055 369.086C225.707 506.069 279.974 543.767 308.107 544.778L308.251 540.78ZM225.053 368.95C220.424 232.631 265.581 105.727 288.687 59.4209L285.108 57.6349C261.782 104.381 216.398 231.946 221.055 369.086L225.053 368.95ZM288.727 59.3356C294.541 46.1668 305.084 28.0721 317.764 16.4178C324.101 10.5936 330.818 6.52057 337.604 5.325C344.288 4.14769 351.267 5.71754 358.359 11.6381L360.922 8.56749C353.001 1.9545 344.848 -0.0125794 336.911 1.38566C329.077 2.76564 321.685 7.38066 315.057 13.4728C301.806 25.6512 290.991 44.3027 285.068 57.7202L288.727 59.3356ZM309.52 544.263C323.862 531.304 345.088 507.065 362.352 476.318C379.615 445.575 393.001 408.172 391.433 368.938L387.437 369.098C388.965 407.343 375.91 444.002 358.865 474.36C341.82 504.715 320.871 528.616 306.838 541.295L309.52 544.263ZM340.904 139.232C334.932 137.321 329.265 138.359 324.103 141.69C319.016 144.972 314.441 150.457 310.358 157.462C302.187 171.479 295.646 192.188 291.02 215.739C281.764 262.859 280.036 322.104 288.811 363.735L292.725 362.91C284.088 321.934 285.764 263.25 294.945 216.51C299.537 193.132 305.973 172.929 313.814 159.476C317.737 152.745 321.925 147.855 326.272 145.051C330.543 142.295 334.976 141.535 339.684 143.042L340.904 139.232ZM288.811 363.735C292.457 381.035 299.194 396.161 306.452 405.301C310.053 409.835 313.977 413.144 317.937 414.276C319.964 414.856 322.024 414.869 323.997 414.147C325.959 413.429 327.673 412.044 329.129 410.096L325.924 407.702C324.826 409.173 323.702 409.996 322.622 410.391C321.554 410.781 320.371 410.812 319.037 410.43C316.272 409.64 312.997 407.109 309.585 402.813C302.818 394.292 296.284 379.793 292.725 362.91L288.811 363.735ZM329.129 410.096C335.611 401.419 344.587 387.623 349.07 366.588C353.551 345.559 353.512 317.441 342.208 280.135L338.38 281.295C349.517 318.052 349.478 345.48 345.157 365.755C340.838 386.023 332.209 399.289 325.924 407.702L329.129 410.096ZM391.435 369.059C391.914 345.328 391.339 313.227 388.73 280.556L384.742 280.875C387.34 313.399 387.912 345.366 387.435 368.978L391.435 369.059ZM388.73 280.556C386.163 248.422 381.621 215.64 374.137 189.711C370.396 176.75 365.895 165.407 360.479 156.693C355.075 147.998 348.625 141.704 340.904 139.232L339.684 143.042C346.126 145.104 351.922 150.503 357.081 158.804C362.228 167.085 366.606 178.04 370.294 190.82C377.669 216.372 382.184 248.846 384.742 280.875L388.73 280.556ZM340.294 282.715H386.736V278.715H340.294V282.715ZM436.72 520.863L372.296 530.832L372.908 534.785L437.332 524.816L436.72 520.863ZM372.296 530.832L307.873 540.802L308.485 544.755L372.908 534.785L372.296 530.832ZM328.609 410.581L390.518 370.699L388.352 367.337L326.443 407.218L328.609 410.581ZM470.325 1532.77C467.08 1536.6 463.969 1539.56 461.004 1541.79L463.411 1544.99C466.656 1542.54 469.978 1539.36 473.374 1535.36L470.325 1532.77ZM535.834 1533.92C535.276 1541.39 534.571 1548.57 533.697 1555.33L537.664 1555.84C538.549 1549 539.26 1541.75 539.823 1534.22L535.834 1533.92ZM461.004 1541.79C458.451 1543.72 456.014 1545.1 453.698 1546.02L455.177 1549.73C457.87 1548.66 460.616 1547.1 463.411 1544.99L461.004 1541.79ZM453.698 1546.02C448.719 1548 444.198 1547.92 440.091 1546.48C435.937 1545.02 432.092 1542.13 428.627 1538.31C421.676 1530.66 416.575 1519.65 413.785 1510.69L409.966 1511.88C412.853 1521.15 418.181 1532.76 425.665 1541C429.418 1545.14 433.793 1548.51 438.767 1550.26C443.788 1552.02 449.304 1552.07 455.177 1549.73L453.698 1546.02ZM536.28 1527.41C536.143 1529.6 535.995 1531.77 535.834 1533.92L539.823 1534.22C539.985 1532.05 540.135 1529.87 540.272 1527.66L536.28 1527.41ZM533.685 1371.83C535.809 1403.96 538.937 1460.94 537.077 1511.21L541.074 1511.35C542.943 1460.87 539.802 1403.72 537.676 1371.57L533.685 1371.83ZM537.077 1511.21C536.874 1516.7 536.61 1522.12 536.28 1527.41L540.272 1527.66C540.605 1522.33 540.87 1516.88 541.074 1511.35L537.077 1511.21ZM462.978 1545.24L539.846 1513.13L538.305 1509.44L461.436 1541.55L462.978 1545.24Z" fill="black"/>
<path d="M903.877 242.579C909.441 228.914 910.857 201.281 872.008 200.066" stroke="black" stroke-width="4" stroke-linecap="round"/>
<path d="M921.389 223.249C927.094 205.101 935.031 178.484 895.199 176.871" stroke="black" stroke-width="4" stroke-linecap="round"/>
<path d="M818.41 497.015C700.92 487.74 627.746 539.528 605.846 566.582C569.774 480.267 530.096 296.043 659.953 249.665C789.81 203.287 819.698 395.241 818.41 497.015Z" fill="white" stroke="black" stroke-width="4"/>
<path d="M688.819 511.54C620.798 412.601 655.719 290.017 676.332 246.216C793.472 222.29 815.236 398.893 820.39 497.446C783.503 489.47 716.517 501.234 688.819 511.54Z" fill="black" stroke="black" stroke-width="4"/>
<path d="M603.407 288.947C610.492 271.555 612.296 236.386 562.826 234.84" stroke="black" stroke-width="4" stroke-linecap="round"/>
<path d="M678.486 385.386L641.441 422.731L634.774 356.124L678.486 385.386Z" fill="white"/>
<path d="M1116.07 446.605C999.41 429.861 923.085 476.881 899.505 502.485C869.007 414.046 841.149 227.668 973.697 189.66C1106.25 151.652 1123.84 345.12 1116.07 446.605Z" fill="white" stroke="black" stroke-width="4"/>
<path d="M985.819 452.828C924.241 349.756 962.458 229.292 985.819 186.893C1098.21 149.147 1124.95 347.401 1116.01 445.688C1083.58 438.123 1014.12 444.308 985.819 452.828Z" fill="black" stroke="black" stroke-width="4"/>
<path d="M983.806 342.87L946.761 380.215L940.094 313.608L983.806 342.87Z" fill="white"/>
<path d="M679.998 655.639C782.52 719.509 1005.29 791.799 1076.21 569.996" stroke="black" stroke-width="4"/>
<path d="M694.187 614.994C694.672 629.288 694.859 665.565 649.663 670.67" stroke="black" stroke-width="4"/>
<path d="M1057.55 537.438C1062.07 556.674 1080.3 588.705 1117.11 562.934" stroke="black" stroke-width="4"/>
<path d="M926.912 847.191C944.797 870.101 1002.64 924.781 1123.47 969.074C1123.47 969.074 1163.45 988.066 1312.85 985.876C1330.31 985.69 1285 952.394 1232.85 942.077L1246.58 869.967L1258.54 799.514C1447.39 837.414 1505.5 905.013 1513.91 933.218C1555.76 1007.37 1500.3 1089.12 1458.01 1100.77C1424.11 1110.11 1305.83 1144.77 1246.56 1149.5C1246.56 1149.5 1099.35 1163.25 1043.19 1160.82C987.029 1158.39 954.67 1173.91 945.511 1181.98L889.965 1245.98C869.368 1263.34 854.097 1235.84 892.471 1179.69C930.844 1123.53 886.218 1138.4 859.109 1152.85L824.273 1165.01C816.374 1167.28 797.517 1170.11 785.273 1163.33C773.028 1156.55 775.511 1145.98 786.157 1139.93C796.803 1133.88 828.879 1117.56 872.018 1100.67C915.158 1083.79 890.828 1071.54 873.271 1067.53C857.2 1065.53 813.944 1057.93 769.488 1043.5C725.031 1029.08 759.784 1007.94 779.879 1010.55C794.91 1012.5 836.99 1018.69 884.179 1026.98C931.367 1035.28 904.479 1013.54 885.137 1001.63C864.853 987.083 818.251 952.253 794.116 929.334C769.981 906.414 784.416 890.495 795.295 898.135L856.516 932.035C869.172 941.697 900.1 961.265 922.564 962.238C945.029 963.21 940.687 951.303 935.708 945.228L913.413 914.966C903.553 900.217 885.274 865.701 891.032 845.638C896.791 825.575 917.352 838.314 926.912 847.191Z" fill="#FFE2A7" stroke="black" stroke-width="4"/>
<path d="M586.965 315.989C592.529 302.325 593.945 274.691 555.096 273.477" stroke="black" stroke-width="4" stroke-linecap="round"/>
<path d="M716.806 759.031C692.201 775.472 618.364 810.095 484.77 815.605C484.77 815.605 439.283 821.57 290.93 773.964C273.57 768.468 353.587 753.004 408.638 759.031L427.962 609.606C228.419 588.286 126.02 639.555 102.591 660.94C38.941 719.036 97.2052 821.204 112.207 839.516C148.45 883.756 250.993 927.918 308.702 950.488C308.702 950.488 451.464 1008.48 508.193 1023.26C564.922 1038.05 592.608 1062.74 599.36 1073.24L635.853 1151.31C651.267 1174.17 674.623 1152.54 652.938 1087.2C631.254 1021.86 671.37 1049.66 694.139 1071.73L725.289 1093.96C732.498 1098.53 750.47 1106.98 764.684 1104.23C778.899 1101.48 779.545 1090.63 770.714 1081.61C761.884 1072.58 734.714 1047.22 696.676 1017.94C658.638 988.672 686.522 984.379 705.218 985.891C721.837 988.878 767.224 994.793 815.823 994.555C864.422 994.316 836.006 963.532 815.194 959.905C799.626 957.191 755.829 950.283 706.316 943.831C656.804 937.378 690.041 924.801 712.849 919.319C737.377 911.597 794.145 892.516 824.986 877.97C855.827 863.424 846.133 843.816 833.026 847.802L761.953 861.541C746.476 866.917 709.85 876.191 687.158 870.277C664.466 864.362 672.314 854.309 679.074 850.021L710.249 827.899C724.44 816.81 752.866 789.402 753.05 768.478C753.234 747.554 728.964 753.462 716.806 759.031Z" fill="#FFE2A7" stroke="black" stroke-width="4"/>
</g>
<defs>
<filter id="filter0_d_408_2" x="67.4551" y="0.960938" width="1467.32" height="1589.28" filterUnits="userSpaceOnUse" color-interpolation-filters="sRGB">
<feFlood flood-opacity="0" result="BackgroundImageFix"/>
<feColorMatrix in="SourceAlpha" type="matrix" values="0 0 0 0 0 0 0 0 0 0 0 0 0 0 0 0 0 0 127 0" result="hardAlpha"/>
<feOffset dy="4"/>
<feGaussianBlur stdDeviation="2"/>
<feComposite in2="hardAlpha" operator="out"/>
<feColorMatrix type="matrix" values="0 0 0 0 0 0 0 0 0 0 0 0 0 0 0 0 0 0 0.25 0"/>
<feBlend mode="normal" in2="BackgroundImageFix" result="effect1_dropShadow_408_2"/>
<feBlend mode="normal" in="SourceGraphic" in2="effect1_dropShadow_408_2" result="shape"/>
</filter>
</defs>
</svg>
